<svg id="Capa_1" data-name="Capa 1" xmlns="http://www.w3.org/2000/svg" viewBox="0 0 585.85 103.4"><defs><style>.cls-1,.cls-6{font-size:54px;font-family:Poppins-ExtraBold, Poppins;font-weight:800;}.cls-1,.cls-5{fill:#ee7221;}.cls-2,.cls-6{fill:#fff;}.cls-3{fill:#1d1d1b;}.cls-4{fill:#cbd5e1;}</style></defs><title>logo-login</title><text class="cls-1" transform="translate(143.78 88.77)">Umbrella Cloud</text><rect class="cls-2" x="74.62" y="35.11" width="2.14" height="4.29" rx="1.07"/><path class="cls-3" d="M89.28,98.8a.15.15,0,0,1,0,.07V98.8Z"/><path class="cls-4" d="M75.1,77.77a1.1,1.1,0,0,0,0-.18c0,.06,0,.12,0,.18Z"/><path class="cls-4" d="M75.11,77.1c0-.28,0-.56,0-.83,0,.16,0,.33,0,.49s0,.56,0,.83C75.11,77.43,75.11,77.26,75.11,77.1Z"/><path class="cls-4" d="M97.69,78a.22.22,0,0,0,0-.08V78Z"/><path class="cls-4" d="M132.92,63.41a15.09,15.09,0,0,1-12.47,14.86h-.16c0-.28,0-.57,0-.86s0-.39,0-.58v.6c0-.2,0-.41,0-.61a11.3,11.3,0,0,0-22.57,0v.27c0,.28,0,.56,0,.83,0-.17,0-.34,0-.52s0-.39,0-.58c0,0,0,0,0,0h0a11.32,11.32,0,0,0-4.35-8.6,0,0,0,0,0,0,0c-.17-.13-.34-.26-.52-.38l0,0A14.6,14.6,0,0,0,91.53,67a10.62,10.62,0,0,0-1.34-.58,11.5,11.5,0,0,0-1.42-.4L88.28,66l-.56-.08-.56-.05-.58,0a12,12,0,0,0-2.42.22h0l-.8.2-.78.25a5.38,5.38,0,0,0-.51.2l-.49.22c-.28.13-.56.28-.83.44s-.39.23-.58.36l-.44.31c-.14.1-.29.21-.43.33l-.41.35-.39.37c-.13.12-.25.25-.38.38l-.35.41-.34.42c-.11.14-.21.29-.31.44s-.32.47-.46.72l0,0c-.14.25-.27.5-.4.75s-.3.67-.43,1-.23.7-.33,1.06l-.12.55c0,.19-.07.37-.1.56l-.06.44c0,.15,0,.3,0,.45v-.09c0,.19,0,.39,0,.58A11.3,11.3,0,0,0,64,65.46a11.59,11.59,0,0,0-3,.35c-.21,0-.43.11-.64.18a3.4,3.4,0,0,0-.34.12,10.65,10.65,0,0,0-2.1,1,3.28,3.28,0,0,0-.31.2A11.35,11.35,0,0,0,54.77,70a4.16,4.16,0,0,0-.32.45c-.11.17-.22.34-.32.51a5.05,5.05,0,0,0-.25.45l-.23.45a.4.4,0,0,0-.08.16,3.73,3.73,0,0,0-.16.35c0,.11-.09.23-.13.35l0,0,0,.06a8.25,8.25,0,0,0-.31,1c0,.15-.09.3-.12.45s-.11.51-.15.77l-.06.48a10.9,10.9,0,0,0-.08,1.29c0,.26,0,.52,0,.77h-.09a11.51,11.51,0,0,0,.06-1.18v-.22c0,.16,0,.31,0,.47A11.3,11.3,0,0,0,41.37,65.13a10.89,10.89,0,0,0-1.72.11l-.49.08h-.07c-.22,0-.44.09-.66.15s-.49.13-.73.21-.18.06-.27.09-.44.16-.66.26a4.68,4.68,0,0,0-.45.2c-.29.14-.58.3-.87.47l-.26.15A11.44,11.44,0,0,0,33.67,68a4,4,0,0,0-.37.35,11.31,11.31,0,0,0-3,5.25l-.12.47L30,74.6c0,.18-.05.35-.07.53s0,.36,0,.55h0c0,.16,0,.31,0,.47v.19c0,.3,0,.6,0,.9A24.62,24.62,0,1,1,51.24,33.3a32.68,32.68,0,0,1,63.25,15.37,14.56,14.56,0,0,1,3.32-.37A15.1,15.1,0,0,1,132.92,63.41Z"/><path class="cls-5" d="M89.3,89.79v0a.86.86,0,0,1,0,.16v0a7.17,7.17,0,0,1-2.22,5.32,8.38,8.38,0,0,1-5.93,2.06,8.47,8.47,0,0,1-5.89-2A7,7,0,0,1,73,90V69.76h3.87V90a4.43,4.43,0,0,0,1,3,4,4,0,0,0,3.2,1.2A4,4,0,0,0,84.35,93a4.8,4.8,0,0,0,1.09-2.82h0a1,1,0,0,1,0-.3c0-.8.87-1.46,1.95-1.46a1.83,1.83,0,0,1,1.94,1.33A.19.19,0,0,1,89.3,89.79Z"/><path class="cls-5" d="M120.31,76.8v0a11.3,11.3,0,0,0-22.57,0v.07c0,.12,0,.24,0,.37,0-.14,0-.3,0-.44s0,0,0,0h0a11.32,11.32,0,0,0-4.35-8.6,0,0,0,0,0,0,0c-.17-.13-.34-.26-.52-.38l0,0A14.6,14.6,0,0,0,91.53,67a10.62,10.62,0,0,0-1.34-.58,11.5,11.5,0,0,0-1.42-.4L88.28,66l-.56-.08-.56-.05-.58,0a12,12,0,0,0-2.42.22h0l-.8.2-.78.25a5.38,5.38,0,0,0-.51.2l-.49.22c-.28.13-.56.28-.83.44s-.39.23-.58.36l-.44.31c-.14.1-.29.21-.43.33l-.41.35-.39.37c-.13.12-.25.25-.38.38l-.35.41-.34.42c-.11.14-.21.29-.31.44s-.32.47-.46.72l0,0c-.14.25-.27.5-.4.75s-.3.67-.43,1a10,10,0,0,0-.33,1.06l-.12.55a3.89,3.89,0,0,0-.1.56l-.06.44c0,.11,0,.23,0,.35h0c0,.19,0,.39,0,.58A11.3,11.3,0,0,0,64,65.46a11.59,11.59,0,0,0-3,.35c-.21,0-.43.11-.64.18a3.4,3.4,0,0,0-.34.12,10.65,10.65,0,0,0-2.1,1,3.28,3.28,0,0,0-.31.2A11.35,11.35,0,0,0,54.77,70a4.16,4.16,0,0,0-.32.45c-.11.17-.22.34-.32.51a5.05,5.05,0,0,0-.25.45,3.19,3.19,0,0,0-.23.45.4.4,0,0,0-.08.16,1.58,1.58,0,0,0-.16.35,10.84,10.84,0,0,0-.89,3.77c0,.16,0,.31,0,.47A11.3,11.3,0,0,0,41.37,65.13a10.89,10.89,0,0,0-1.72.11l-.49.08h-.07c-.22,0-.44.09-.66.15s-.49.13-.73.21-.18.06-.27.09-.44.16-.66.26a4.68,4.68,0,0,0-.45.2c-.29.14-.58.3-.87.47l-.26.15A11.44,11.44,0,0,0,33.67,68a4,4,0,0,0-.37.35,11.31,11.31,0,0,0-3,5.25l-.12.47L30,74.6c0,.18-.05.35-.07.53s0,.36,0,.55c.66-21.33,20.46-38.3,44.7-38.44h1.07l1.07,0C100.93,38.13,120.15,55.56,120.31,76.8Z"/><path class="cls-2" d="M120.31,76.83v.6c0-.2,0-.41,0-.61A0,0,0,0,1,120.31,76.83Z"/><path class="cls-2" d="M52.52,76.13c0,.16,0,.31,0,.47A11.3,11.3,0,0,0,30,75.13a11.31,11.31,0,0,1,22.55,1Z"/><path class="cls-2" d="M86.58,65.8a12,12,0,0,0-2.42.22,11.18,11.18,0,0,1,2.26-.23Z"/><path class="cls-2" d="M90.19,66.44a11.5,11.5,0,0,0-1.42-.4A10,10,0,0,1,90.19,66.44Z"/><path class="cls-2" d="M97.73,76.83v.27c0,.28,0,.56,0,.83,0-.17,0-.34,0-.52s0-.39,0-.58c0,0,0,0,0,0h0a11.32,11.32,0,0,0-4.35-8.6,11.24,11.24,0,0,1,4.37,8.41h0A1.77,1.77,0,0,0,97.73,76.83Z"/><path class="cls-2" d="M120.31,76.8v0a11.3,11.3,0,0,0-22.57,0v.27c0,.28,0,.56,0,.83,0-.17,0-.34,0-.52s0-.39,0-.58c0,0,0,0,0,0h0c0-.06,0-.12,0-.18h0a11.32,11.32,0,0,1,22.59.21Z"/><path class="cls-2" d="M120.3,76.82a0,0,0,0,1,0,0v.6C120.31,77.23,120.3,77,120.3,76.82Z"/><text class="cls-6" transform="translate(143.78 -26.12)">Umbrella Cloud</text></svg>